<?xml version="1.0" encoding="UTF-8"?>
<svg version="1.1" viewBox="0 0 2048 2048" width="2048" height="2048" xmlns="http://www.w3.org/2000/svg">
<path transform="translate(324)" d="m0 0h597l17 3 20 7 16 9 11 9 7 6 9 11 7 10 8 16 5 16 3 18v17l-3 19-5 16-11 21-9 11-6 7-14 11-13 8-11 5-15 5-21 3-588 1-20 4-21 9-11 7-9 7-6 5-7 8-9 13-8 16-5 14-3 16v1391l3 17 7 19 8 14 8 11 6 7 8 7 13 9 16 8 18 6 13 2 587 1 17 2 16 5 12 5 14 8 11 9 13 13 7 10 10 19 5 16 2 9 1 9v18l-3 18-5 16-8 16-10 14-9 10-14 11-15 9-19 7-14 3-6 1h-597l-31-3-31-6-25-7-20-7-25-11-21-11-19-12-14-10-14-11-15-13-23-23-9-11-10-13-10-14-14-23-11-21-10-24-10-30-7-31-4-29-1-13v-1402l3-30 6-31 7-25 7-20 12-27 9-17 11-18 12-17 11-14 13-15 22-22 11-9 15-12 24-16 19-11 21-10 25-10 26-8 27-6 29-4z"/>
<path transform="translate(1474,455)" d="m0 0h11l16 2 15 4 12 5 13 7 13 10 16 15 445 445 7 8 9 13 5 8 8 21 3 14 1 7v20l-3 17-6 18-6 12-8 12-9 10-7 8-448 448-8 7-15 11-19 9-14 4-10 2-11 1h-10l-17-2-15-4-12-5-13-7-12-9-14-14-9-13-9-17-6-21-1-7v-30l3-15 5-15 9-17 10-13 265-265-869-1-15-2-20-6-16-8-13-9-12-11v-2h-2l-11-15-9-17-6-20-2-11v-26l4-19 6-16 8-15 13-16 7-7 15-11 16-8 18-6 9-2 10-1 869-1-267-267-9-13-8-15-5-15-3-15v-30l3-15 5-15 9-17 10-13 14-14 15-10 17-8 14-4 10-2z"/>
</svg>
